<?xml version="1.0" standalone="no"?>
<!DOCTYPE svg PUBLIC "-//W3C//DTD SVG 20010904//EN"
 "http://www.w3.org/TR/2001/REC-SVG-20010904/DTD/svg10.dtd">
<svg version="1.0" xmlns="http://www.w3.org/2000/svg"
 width="2400.000000pt" height="2400.000000pt" viewBox="0 0 2400.000000 2400.000000"
 preserveAspectRatio="xMidYMid meet">
<metadata>
Created by potrace 1.16, written by Peter Selinger 2001-2019
</metadata>
<g transform="translate(0.000000,2400.000000) scale(0.100000,-0.100000)"
fill="#000000" stroke="none">
<path d="M0 12000 l0 -12000 12000 0 12000 0 0 12000 0 12000 -12000 0 -12000
0 0 -12000z m13210 4961 c188 -53 339 -193 392 -363 21 -71 34 -214 24 -281
l-7 -46 -165 -3 c-90 -2 -164 0 -164 4 0 4 -6 5 -13 2 -21 -8 -37 40 -37 109
0 76 -27 128 -86 170 l-42 29 -813 2 c-807 1 -814 1 -854 -20 -41 -21 -82 -71
-90 -108 -2 -12 -7 -61 -10 -110 l-7 -88 -41 7 c-23 3 -104 6 -180 5 l-137 -1
-10 26 c-15 40 -12 193 5 260 52 204 217 366 422 414 21 5 423 9 893 10 805 1
859 0 920 -18z m-2223 -1977 c12 -3 25 -15 29 -26 3 -11 3 -116 -1 -234 l-8
-214 -257 0 c-141 0 -282 -4 -311 -10 -189 -35 -348 -199 -378 -390 -7 -42
-11 -522 -11 -1383 l0 -1318 -79 61 c-151 117 -334 324 -377 425 -11 27 -14
100 -14 355 0 190 -4 329 -10 340 -6 10 -10 162 -11 366 -1 192 -5 360 -9 374
-8 24 -8 24 -9 3 -1 -24 -10 -27 -60 -17 -45 9 -38 24 11 24 23 0 39 2 36 5
-2 3 -54 2 -115 -2 l-111 -6 -7 -406 -8 -405 -62 -61 c-138 -134 -196 -324
-166 -536 16 -107 38 -174 94 -285 46 -93 144 -244 157 -244 4 0 13 -13 20
-30 7 -16 21 -39 31 -51 11 -12 18 -24 16 -25 -2 -2 -202 -4 -445 -4 -243 -1
-442 -5 -442 -9 0 -5 7 -14 15 -21 8 -7 15 -19 15 -26 0 -8 5 -14 11 -14 5 0
7 -4 4 -10 -3 -5 -1 -10 5 -10 6 0 9 -4 6 -9 -7 -11 27 -51 44 -51 7 0 10 -7
6 -16 -3 -9 -2 -12 5 -8 6 4 9 -1 8 -12 -3 -20 11 -53 33 -76 7 -7 33 -43 57
-80 25 -37 48 -65 52 -62 4 2 9 -6 13 -19 5 -19 8 -20 17 -7 8 12 9 10 4 -7
-5 -18 -1 -25 19 -34 14 -7 23 -15 21 -19 -3 -4 2 -13 10 -20 13 -11 15 -10
10 6 -4 10 3 2 14 -18 12 -20 30 -43 41 -51 11 -7 19 -16 17 -18 -1 -2 26 -31
62 -64 35 -33 61 -54 56 -46 -5 10 -4 12 3 7 7 -4 12 -14 12 -23 0 -10 6 -13
16 -9 8 3 13 2 10 -3 -8 -12 13 -28 48 -37 15 -3 23 -10 17 -13 -6 -4 7 -17
29 -31 22 -14 40 -28 40 -33 0 -4 5 -5 10 -2 6 3 10 2 10 -3 0 -5 35 -30 77
-56 42 -26 88 -55 102 -64 23 -16 25 -16 19 0 -5 12 -3 15 8 11 12 -4 14 56
14 446 0 248 3 451 6 451 3 0 12 -6 20 -14 12 -12 14 -89 14 -470 0 -387 2
-456 14 -456 8 0 17 -6 19 -12 3 -7 6 192 7 442 1 250 4 450 6 444 3 -6 16 -9
29 -6 19 3 53 -14 136 -68 461 -301 1129 -500 1934 -576 254 -24 795 -29 1077
-10 758 51 1398 176 2193 428 677 214 1363 553 1917 946 72 51 132 91 134 89
15 -15 -263 -332 -467 -532 -342 -335 -713 -611 -1214 -900 -119 -68 -369
-195 -441 -224 -58 -22 -100 -41 -264 -118 -63 -30 -131 -58 -150 -62 -19 -5
-114 -39 -210 -76 -480 -183 -1147 -353 -1680 -430 -417 -59 -632 -76 -1065
-82 -491 -6 -806 10 -1150 62 -60 9 -138 18 -172 20 -34 2 -75 11 -92 19 -17
9 -41 16 -54 16 -13 0 -37 4 -53 9 -16 5 -63 17 -104 26 -41 9 -97 23 -125 30
-231 65 -416 126 -555 182 -47 19 -98 40 -114 46 -92 37 -344 168 -463 242
-190 117 -354 246 -509 400 -150 149 -232 250 -323 397 -245 393 -362 776
-377 1239 -6 181 5 413 26 522 6 29 18 88 26 132 92 461 342 923 689 1270 488
489 1211 800 1915 825 252 9 928 12 957 4z m2251 -1 l52 -6 0 -233 0 -234
-995 0 -995 0 -1 123 c-1 67 -3 163 -4 212 -2 50 -1 103 2 118 l5 28 941 -1
c518 -1 966 -4 995 -7z m1290 -21 c137 -47 222 -102 311 -198 64 -70 119 -168
149 -264 15 -51 17 -182 20 -1630 2 -866 0 -1616 -3 -1666 l-7 -91 -61 -17
c-34 -10 -137 -37 -229 -61 l-168 -43 0 601 c0 331 -3 1034 -6 1562 -6 1040
-5 1013 -61 1117 -57 105 -197 204 -322 228 -30 5 -171 10 -315 10 l-262 0 -3
229 c-1 127 0 235 4 240 4 7 150 10 448 8 424 -3 445 -4 505 -25z m-333 -593
c73 -27 156 -104 192 -177 l28 -57 3 -462 3 -463 -2126 0 -2126 0 3 463 3 462
28 57 c44 89 127 161 217 189 14 4 856 8 1872 8 1845 1 1847 1 1903 -20z
m4040 -662 c-4 -13 -7 -30 -8 -38 -2 -8 -5 -18 -9 -24 -3 -5 -9 -35 -13 -65
-3 -30 -11 -71 -15 -90 -5 -19 -20 -100 -34 -180 -14 -80 -51 -266 -81 -415
-51 -244 -81 -397 -121 -615 -7 -41 -27 -140 -44 -220 -40 -188 -45 -212 -81
-420 -16 -95 -35 -180 -41 -187 -15 -18 -31 -3 -128 122 -194 248 -488 603
-514 620 -24 16 -125 54 -376 140 -167 57 -428 150 -472 167 -16 6 -28 13 -28
17 0 3 110 73 243 154 667 408 1533 945 1637 1014 74 49 93 54 85 20z m-3820
-1677 l0 -1065 -55 -12 c-369 -81 -882 -151 -1290 -174 -256 -15 -835 -6
-1050 16 -737 74 -1377 256 -1812 515 l-38 22 0 884 0 884 2123 -2 2122 -3 0
-1065z m588 -1876 c-2 -16 -5 -126 -7 -244 -2 -118 -4 -225 -5 -237 l-1 -23
-215 0 c-137 0 -215 -4 -215 -10 0 -6 78 -10 215 -10 l215 0 0 -25 0 -25 -215
0 c-118 0 -218 -1 -222 -2 -5 -2 -8 75 -8 171 l0 173 49 20 c27 10 64 32 82
48 18 15 43 31 55 35 12 4 32 16 43 27 12 11 34 26 50 35 15 8 58 35 93 59 36
25 71 43 77 41 6 -2 10 -17 9 -33z m-594 -476 c-1 -95 -4 -163 -6 -150 l-4 22
-242 2 -242 3 243 2 c150 2 242 7 242 13 0 6 -91 10 -245 10 -157 0 -245 -4
-245 -10 0 -5 -13 -10 -30 -10 -16 0 -30 5 -30 10 0 6 -11 10 -24 10 -15 0
-26 7 -29 20 -3 12 0 20 8 20 7 0 18 7 25 15 14 17 35 21 25 5 -3 -5 -1 -10 4
-10 6 0 11 5 11 10 0 6 12 10 28 11 15 0 21 3 13 6 -12 5 50 36 94 47 6 1 27
10 47 19 21 9 66 24 100 33 35 10 72 23 83 31 11 7 30 13 42 13 13 0 23 5 23
10 0 6 10 10 23 10 17 0 19 2 8 9 -11 7 -7 10 15 14 70 10 64 25 63 -165z
m-34 -346 c-3 -8 -5 -18 -5 -23 0 -5 -295 -9 -734 -9 -721 0 -734 0 -739 20
-5 18 1 19 82 22 47 2 382 3 744 3 543 0 656 -2 652 -13z m615 -12 c0 -19 -7
-20 -214 -20 -205 0 -214 1 -219 20 -5 20 0 20 214 20 212 0 219 -1 219 -20z
m-620 -100 c0 -7 -262 -10 -765 -10 -503 0 -765 3 -765 10 0 7 262 10 765 10
503 0 765 -3 765 -10z"/>
</g>
</svg>
